<?xml version="1.0" standalone="no"?>
<!DOCTYPE svg PUBLIC "-//W3C//DTD SVG 20010904//EN"
 "http://www.w3.org/TR/2001/REC-SVG-20010904/DTD/svg10.dtd">
<svg version="1.0" xmlns="http://www.w3.org/2000/svg"
 width="4237.000000pt" height="4000.000000pt" viewBox="0 0 4237.000000 4000.000000"
 preserveAspectRatio="xMidYMid meet">
<metadata>
Created by potrace 1.16, written by Peter Selinger 2001-2019
</metadata>
<g transform="translate(0.000000,4000.000000) scale(0.100000,-0.100000)"
fill="#000000" stroke="none">
<path d="M9524 39918 c-608 -636 -1049 -1617 -1179 -2623 -56 -434 -4 -1018
146 -1617 178 -716 522 -1515 938 -2181 33 -54 61 -101 61 -105 0 -4 -25 -27
-56 -52 -163 -130 -327 -346 -435 -575 -126 -266 -210 -640 -213 -940 -1 -126
0 -132 35 -221 143 -367 410 -578 763 -603 88 -6 91 -7 94 -31 1 -14 153
-2880 337 -6370 184 -3490 346 -6550 359 -6800 14 -250 23 -456 21 -458 -2 -2
-97 -23 -212 -47 -1497 -308 -2765 -878 -3678 -1652 -213 -180 -331 -297 -547
-540 l-28 -33 -328 0 c-730 0 -1624 -59 -2466 -161 -137 -17 -252 -27 -256
-22 -4 4 -12 64 -19 133 -18 189 -86 648 -131 890 -102 542 -201 925 -367
1421 l-85 256 37 48 c20 27 69 115 109 195 331 668 370 1407 110 2066 -130
330 -328 642 -540 851 -352 347 -735 533 -1251 609 -122 18 -487 24 -645 11
l-98 -9 0 -129 0 -130 87 8 c166 15 547 9 667 -11 339 -56 663 -194 892 -381
188 -153 280 -255 419 -468 188 -290 309 -601 362 -933 24 -152 24 -477 0
-634 -41 -259 -131 -543 -240 -755 l-25 -50 -38 85 c-21 47 -80 168 -130 270
-432 863 -982 1431 -1649 1703 -99 41 -306 107 -334 107 -8 0 -11 -218 -11
-777 l1 -778 57 -34 c193 -116 469 -374 626 -586 376 -509 638 -1170 790
-1990 64 -347 126 -901 126 -1140 l0 -60 -245 -48 c-346 -68 -732 -155 -1068
-239 l-287 -72 0 -252 0 -252 107 29 c1541 418 3400 689 5068 739 187 5 425
15 529 22 147 9 225 9 345 -1 86 -6 280 -16 431 -21 3118 -111 5676 -951 7615
-2499 495 -395 981 -871 1396 -1366 42 -49 133 -182 204 -295 522 -835 1649
-2536 2484 -3750 1699 -2471 3099 -4324 4127 -5461 197 -218 678 -698 806
-804 53 -44 97 -82 97 -85 0 -3 -100 -75 -222 -160 l-222 -155 418 -3 418 -2
112 78 c62 43 249 175 417 293 1195 842 4001 2807 5330 3730 1928 1341 3104
2144 3410 2328 58 35 139 89 180 120 356 273 1135 742 1815 1093 1789 926
3621 1508 5290 1683 625 65 1375 73 1930 20 83 -8 180 -18 218 -21 l67 -7 -2
244 -3 244 -165 16 c-1900 189 -4029 -196 -6245 -1131 -979 -413 -1999 -953
-2836 -1501 -91 -60 -174 -109 -185 -109 -111 1 -722 434 -1609 1144 -949 758
-2955 2444 -2955 2482 0 32 82 191 155 299 172 257 457 512 775 695 41 23 100
58 132 76 31 19 62 34 69 34 19 0 366 166 411 197 21 14 86 46 145 72 59 26
141 66 180 89 279 164 528 445 679 769 92 195 164 452 164 582 0 38 4 61 11
61 8 0 10 -18 5 -57 -19 -178 -19 -222 -2 -267 21 -54 71 -101 123 -115 47
-13 204 -14 258 -1 52 13 222 38 305 45 36 3 103 12 150 20 47 7 130 19 185
25 136 16 170 26 209 61 91 79 80 218 -22 281 -28 17 -52 23 -102 23 -76 0
-268 -21 -323 -36 -21 -6 -87 -14 -145 -20 -59 -5 -145 -15 -192 -23 -47 -7
-86 -12 -88 -11 -2 2 1 38 7 80 6 42 11 110 11 151 0 42 5 84 11 95 5 11 24
122 40 247 35 266 17 230 229 478 226 265 574 610 875 869 679 583 1654 1230
2490 1652 94 47 190 100 215 118 66 47 324 192 485 273 266 132 570 241 780
277 118 21 303 21 375 0 129 -37 191 -32 251 22 95 85 68 228 -54 288 -82 40
-222 65 -362 65 -329 0 -715 -115 -1196 -356 -83 -41 -153 -74 -155 -72 -2 2
5 71 16 153 20 158 45 461 56 681 l7 130 41 21 c22 11 138 69 256 130 468 239
873 380 1190 413 136 14 245 2 339 -40 123 -54 219 -32 268 59 39 74 23 161
-39 217 -34 32 -116 70 -200 95 -104 30 -332 37 -486 15 -322 -47 -701 -179
-1160 -401 l-193 -94 7 407 c14 850 -46 1343 -238 1976 l-52 169 27 46 c15 25
55 97 89 159 55 99 66 112 85 107 12 -3 75 -14 140 -24 966 -159 2664 -127
4953 95 538 52 1639 175 1778 199 l32 6 0 179 c0 99 -2 180 -4 180 -3 0 -110
-13 -238 -30 -1181 -150 -2600 -280 -3668 -335 -740 -38 -1662 -45 -2090 -15
-284 19 -743 70 -757 84 -1 1 22 64 52 139 323 817 309 1511 -41 2042 -207
315 -566 611 -999 825 -275 136 -510 209 -795 245 -69 9 -128 19 -131 23 -3 4
-34 43 -69 87 -90 113 -356 375 -483 475 -269 212 -520 373 -735 471 -332 151
-664 220 -992 206 -334 -15 -593 -83 -916 -242 -287 -142 -539 -323 -802 -579
l-143 -140 -77 17 c-748 163 -1050 200 -1647 201 -376 1 -507 -6 -825 -45
-1321 -159 -2649 -727 -3851 -1646 -53 -40 -102 -73 -109 -73 -7 0 -78 20
-159 45 -665 203 -1252 238 -1696 101 l-80 -25 -240 35 c-1113 163 -2156 484
-3163 974 -377 184 -638 329 -1019 566 -199 123 -223 133 -558 215 -465 114
-893 118 -1187 13 -446 -161 -696 -524 -748 -1089 -17 -183 -14 -210 30 -334
122 -343 306 -1281 379 -1941 39 -346 46 -458 46 -770 0 -254 -4 -337 -18
-428 -27 -174 -46 -222 -114 -299 -315 -357 -629 -743 -938 -1151 l-70 -92 -8
57 c-15 120 -479 8221 -473 8281 6 73 50 206 110 336 221 474 728 1105 1397
1736 204 192 583 534 683 615 1075 877 2228 1686 3621 2539 390 239 377 231
464 303 217 181 462 305 711 360 47 10 123 16 205 16 152 1 254 -20 399 -82
50 -21 102 -42 116 -46 14 -4 63 -22 110 -40 116 -45 444 -92 910 -131 257
-21 901 -30 1175 -15 1397 75 2562 457 3465 1137 598 451 1070 1018 1424 1713
192 378 518 1283 561 1559 8 49 43 96 171 232 99 103 277 255 399 341 686 482
1730 813 2990 949 110 12 225 25 255 29 31 5 -387 9 -944 10 l-998 1 -187 -61
c-572 -187 -1072 -439 -1444 -726 -90 -70 -300 -256 -331 -294 -11 -15 -68
-79 -125 -144 -103 -116 -130 -161 -131 -220 0 -46 -44 -225 -88 -365 -110
-349 -331 -921 -441 -1137 -745 -1473 -2080 -2355 -3945 -2608 -785 -106
-1740 -89 -2526 45 -96 17 -131 28 -215 70 -194 98 -375 140 -602 140 -386 0
-771 -154 -1137 -454 -38 -31 -143 -102 -235 -158 -599 -366 -1028 -639 -1496
-951 -418 -279 -927 -634 -1165 -812 -52 -39 -118 -87 -146 -107 l-50 -37 -83
119 c-308 444 -748 847 -1220 1120 -50 29 -91 55 -91 57 0 3 33 60 73 127 525
867 847 1880 928 2921 19 238 17 633 -4 810 -134 1136 -479 2049 -989 2614
l-46 51 -277 -2 -277 -3 69 -50 c158 -116 370 -356 512 -579 331 -522 570
-1312 651 -2154 35 -368 -13 -960 -120 -1477 -122 -589 -361 -1237 -643 -1740
-74 -132 -174 -299 -195 -325 l-18 -22 -115 45 c-988 389 -2264 429 -3569 112
-102 -25 -255 -61 -340 -81 -85 -19 -213 -56 -285 -80 -71 -25 -136 -46 -143
-47 -25 -4 -260 398 -417 713 -377 752 -609 1505 -685 2215 -18 173 -24 520
-11 646 89 823 416 1655 889 2259 151 194 296 345 510 533 l42 37 -269 0 -268
0 -79 -82z m3296 -6293 c1242 -125 2152 -627 2817 -1553 35 -48 63 -92 63 -98
0 -6 -71 -67 -157 -134 -87 -68 -230 -183 -318 -255 -88 -72 -166 -134 -172
-139 -8 -4 -67 23 -148 69 -487 275 -1074 503 -1581 614 -368 80 -602 106
-979 105 -336 0 -461 -11 -750 -69 -526 -105 -1032 -335 -1465 -666 -87 -67
-134 -89 -251 -118 -323 -80 -565 16 -689 273 -51 106 -57 147 -41 299 73 684
380 1141 896 1332 55 20 156 50 225 66 69 15 206 48 305 73 423 107 855 178
1245 205 85 7 175 13 200 15 104 9 656 -4 800 -19z m-124 -1770 c590 -56 1175
-231 1779 -531 116 -57 221 -112 234 -123 l23 -18 -183 -164 c-358 -319 -811
-781 -1069 -1089 -502 -601 -820 -1188 -820 -1512 0 -29 47 -872 106 -1873 58
-1001 171 -2965 253 -4365 l147 -2545 -192 -276 c-232 -332 -614 -908 -749
-1129 -29 -47 -95 -152 -146 -235 -52 -82 -137 -220 -188 -306 l-94 -157 -91
-6 c-141 -11 -603 -63 -783 -89 -160 -23 -163 -23 -163 -4 0 10 -11 229 -25
486 -14 256 -79 1488 -145 2736 -106 2007 -232 4393 -430 8145 -33 630 -74
1390 -90 1690 -16 300 -26 548 -22 551 4 3 36 16 72 28 84 30 136 60 235 136
449 347 997 571 1560 639 183 22 187 22 416 24 121 1 271 -4 365 -13z m19132
-5460 c224 -46 461 -140 668 -266 104 -62 343 -233 451 -320 86 -71 293 -267
293 -279 0 -4 -42 -15 -92 -24 -362 -65 -714 -212 -1049 -438 -64 -43 -120
-78 -126 -78 -6 0 -64 25 -129 56 -463 219 -1080 448 -1642 610 -124 36 -228
67 -230 69 -2 1 37 38 85 82 383 342 793 548 1211 608 148 22 404 13 560 -20z
m-16008 -504 c132 -24 278 -58 435 -103 98 -27 128 -41 265 -127 534 -334
1114 -632 1685 -866 736 -301 1570 -541 2330 -669 238 -40 556 -86 599 -86 22
0 87 15 145 34 147 48 260 66 446 73 171 6 327 -5 530 -38 133 -22 452 -97
459 -108 3 -4 -37 -43 -87 -86 -168 -146 -568 -548 -697 -700 -387 -456 -778
-740 -1167 -845 -64 -18 -121 -23 -313 -30 -202 -6 -243 -10 -294 -29 -150
-54 -241 -145 -289 -292 -3 -11 -44 -23 -143 -44 -410 -83 -840 -237 -1137
-407 -238 -137 -398 -259 -558 -425 -245 -257 -385 -529 -455 -888 -26 -131
-28 -158 -28 -410 -1 -215 3 -292 17 -380 64 -385 200 -684 410 -898 31 -33
57 -61 57 -64 0 -2 -58 -85 -130 -184 -341 -471 -607 -898 -682 -1095 -14 -37
-20 -42 -54 -48 -22 -3 -111 -17 -199 -32 l-161 -26 -389 102 c-215 55 -448
117 -519 136 -132 36 -254 54 -674 99 -477 50 -966 86 -1457 105 -314 12
-1056 12 -1325 0 -107 -4 -196 -7 -197 -6 -9 9 480 778 750 1181 1230 1832
2332 3083 3234 3672 136 89 404 227 514 266 42 15 117 38 168 51 109 29 148
50 178 95 47 70 42 150 -13 211 -63 70 -137 76 -314 25 -470 -136 -994 -481
-1591 -1045 l-146 -139 -6 267 c-11 454 -54 865 -153 1457 -76 458 -204 1035
-280 1263 -34 102 -36 111 -29 197 3 50 15 133 25 185 75 389 274 596 643 666
110 21 449 12 597 -15z m12420 -211 c281 -19 505 -51 830 -116 l325 -65 42
-48 c64 -73 147 -89 225 -43 34 20 53 16 402 -84 550 -157 1058 -342 1542
-561 l122 -55 6 -49 c11 -85 87 -149 177 -149 14 0 46 11 72 23 l46 24 118
-62 c502 -265 1002 -613 1421 -989 100 -89 112 -104 107 -126 -12 -48 -132
-286 -203 -403 -93 -153 -208 -314 -339 -474 -124 -151 -134 -169 -135 -232 0
-100 70 -171 169 -171 68 0 107 25 187 116 187 215 397 523 532 780 l68 128
38 -45 c354 -403 632 -840 827 -1296 l52 -122 -103 -153 c-186 -276 -436 -599
-661 -852 -111 -124 -137 -167 -137 -224 0 -89 82 -172 169 -172 86 1 151 59
407 365 113 136 441 566 451 592 3 7 9 13 13 13 13 0 88 -324 120 -514 61
-366 65 -433 65 -1106 -1 -601 -10 -903 -41 -1330 -33 -460 -73 -702 -128
-785 -19 -27 -38 -59 -44 -71 -6 -12 -80 -57 -178 -108 -606 -318 -1295 -755
-1859 -1180 -408 -308 -692 -553 -1059 -915 -205 -203 -247 -241 -242 -216 11
60 56 464 67 605 12 162 7 234 -22 300 -26 58 -44 77 -104 108 -71 37 -189 42
-308 13 -344 -82 -1020 -452 -1904 -1042 -231 -154 -263 -184 -278 -258 -24
-117 97 -226 216 -193 19 5 160 92 314 194 768 508 1315 817 1644 929 47 16
87 29 89 29 14 0 -33 -425 -102 -925 l-43 -310 -78 -110 c-98 -137 -225 -336
-225 -352 0 -20 -9 -16 -54 21 -70 57 -138 94 -231 125 -262 87 -629 61 -1065
-76 -102 -32 -120 -41 -162 -82 -37 -37 -47 -55 -53 -92 -12 -80 42 -169 114
-189 57 -16 81 -12 218 30 271 85 539 123 708 102 163 -21 253 -71 301 -168
26 -54 29 -68 28 -159 0 -90 -5 -112 -42 -224 -23 -68 -48 -131 -54 -139 -11
-13 -41 -14 -213 -8 -110 4 -225 11 -255 16 -98 15 -479 12 -537 -5 -124 -37
-168 -179 -86 -276 50 -58 70 -62 388 -71 160 -5 335 -12 390 -16 l100 -7 -80
-83 c-102 -107 -205 -185 -331 -249 -200 -102 -391 -145 -651 -145 l-162 0
-148 76 c-203 104 -317 180 -377 250 -55 64 -94 86 -156 86 -74 0 -139 -53
-160 -131 -43 -157 132 -320 593 -550 l119 -60 -119 -81 c-368 -251 -658 -560
-815 -871 -36 -72 -41 -78 -56 -65 -641 544 -2095 1821 -2305 2025 -440 428
-922 807 -1450 1142 l-118 75 -91 135 c-947 1411 -2314 2342 -4005 2728 -159
37 -165 39 -185 71 -11 18 -66 67 -121 109 -544 412 -887 864 -887 1169 0 153
121 328 284 411 27 13 78 46 115 73 88 64 191 114 298 146 128 38 340 45 508
16 386 -67 825 -269 1321 -607 84 -58 158 -105 163 -105 5 0 29 -17 54 -38 25
-20 70 -53 100 -72 l55 -35 7 -75 c22 -235 91 -459 218 -709 132 -262 247
-417 492 -670 813 -836 1864 -1232 2935 -1106 448 52 941 199 1300 387 237
123 397 237 572 407 407 392 647 905 735 1566 24 184 24 688 0 905 -18 161
-56 405 -81 524 l-14 68 40 -6 c161 -26 263 149 163 280 -73 96 -349 252 -588
334 -579 196 -1440 300 -2512 300 -384 0 -548 8 -794 41 -536 70 -892 223
-987 424 -19 39 -24 67 -24 128 0 88 -14 130 -56 168 -64 59 -158 61 -221 5
-54 -47 -75 -103 -75 -200 0 -170 59 -303 192 -437 47 -47 101 -97 120 -110
l34 -26 -94 -63 c-52 -35 -150 -106 -218 -157 -67 -51 -125 -93 -128 -93 -3 0
-169 121 -368 268 -1074 797 -1893 1381 -2149 1532 -42 25 -77 51 -77 57 0 7
15 20 33 30 27 15 63 18 227 19 221 2 295 13 482 74 435 143 856 464 1290 985
95 113 446 459 643 632 83 73 179 161 214 197 35 35 95 84 133 108 37 24 144
99 236 167 306 226 723 493 1047 668 923 500 1903 795 2865 862 169 12 682 12
850 1z m5318 -567 c189 -324 273 -618 273 -953 0 -133 -21 -353 -35 -367 -2
-3 -64 47 -138 109 -339 288 -757 578 -1170 813 -76 42 -138 81 -138 84 0 9
166 105 267 155 260 129 598 220 835 225 l67 1 39 -67z m542 -10 c353 -100
761 -344 1035 -618 256 -256 384 -550 402 -925 13 -287 -59 -640 -209 -1017
-33 -83 -65 -159 -72 -168 -11 -15 -19 -14 -91 15 -107 42 -152 70 -232 141
-38 33 -85 65 -106 71 -34 10 -49 28 -144 167 -155 228 -345 467 -521 653
l-65 69 26 107 c55 227 61 280 62 552 0 207 -4 274 -19 355 -38 204 -94 376
-203 623 -6 15 3 13 137 -25z m-14061 -3479 c149 -82 512 -330 1051 -718 399
-287 1045 -761 1332 -977 l127 -96 -91 -99 c-311 -338 -505 -669 -598 -1019
-18 -66 -33 -121 -34 -122 -1 -1 -44 30 -96 68 -134 100 -390 262 -578 367
-366 203 -715 331 -1032 378 -169 24 -437 15 -575 -20 -167 -42 -266 -87 -425
-191 -52 -34 -122 -77 -155 -96 -34 -20 -107 -81 -171 -144 -102 -101 -116
-119 -163 -215 -28 -58 -51 -113 -51 -122 0 -28 -30 -22 -116 22 -272 136
-457 409 -533 785 -62 306 -48 682 34 944 157 496 613 880 1337 1126 170 58
384 115 545 145 129 24 117 25 192 -16z m3895 -1483 c317 -66 601 -91 1041
-91 1012 0 1845 -87 2371 -246 174 -52 209 -68 212 -95 1 -13 20 -105 42 -204
229 -1054 151 -1867 -238 -2480 -92 -145 -191 -260 -336 -393 -347 -318 -978
-572 -1611 -648 -186 -22 -534 -22 -708 0 -719 92 -1366 422 -1916 978 -236
240 -332 368 -455 611 -86 170 -134 299 -163 445 -24 120 -24 384 0 505 107
534 531 1072 1199 1525 127 86 162 114 179 148 l22 41 110 -34 c60 -18 173
-46 251 -62z m-5460 -1886 l89 -32 29 -89 c35 -109 106 -256 151 -315 18 -24
78 -102 133 -174 55 -71 107 -142 117 -158 10 -15 77 -86 150 -159 l132 -131
-52 6 c-96 11 -336 27 -563 37 -373 17 -678 13 -997 -14 l-53 -5 21 42 c80
158 305 501 582 884 126 175 102 165 261 108z m-5004 -1175 c523 -13 885 -33
1355 -76 325 -29 859 -89 874 -99 3 -2 191 -51 416 -110 775 -202 1353 -362
1945 -541 2615 -791 4689 -1682 6115 -2629 509 -338 833 -597 1210 -965 253
-247 1329 -1190 2670 -2341 2079 -1782 3530 -2959 4240 -3438 94 -63 171 -117
173 -121 1 -3 -111 -82 -250 -175 -658 -437 -1878 -1277 -3663 -2521 -181
-127 -458 -320 -615 -429 -496 -346 -3151 -2205 -3255 -2280 -110 -78 -1034
-727 -1050 -737 -28 -17 -423 344 -747 682 -930 972 -2288 2734 -3970 5155
-931 1340 -2145 3164 -2816 4230 -149 237 -180 279 -416 550 -182 209 -705
732 -921 919 -1128 982 -2403 1694 -3924 2190 -1220 399 -2660 649 -4099 712
l-153 7 23 25 c13 14 77 73 144 131 764 671 1843 1194 3104 1506 883 218 1888
341 2940 358 80 2 177 4 215 5 39 1 243 -3 455 -8z m5410 -200 c973 -75 1791
-289 2565 -670 627 -309 1130 -672 1615 -1166 167 -171 350 -374 350 -389 0
-3 -62 26 -137 66 -1400 741 -3306 1482 -5353 2080 -118 34 -219 66 -224 71
-6 4 17 9 50 9 32 1 120 5 194 9 173 10 764 4 940 -10z"/>
<path d="M19462 20540 c-177 -37 -298 -221 -262 -396 23 -111 81 -188 182
-241 47 -25 64 -28 148 -28 81 0 103 4 145 25 66 32 135 102 169 173 26 52 28
65 24 141 -5 106 -37 175 -113 244 -79 73 -190 103 -293 82z"/>
<path d="M24923 19236 c-62 -20 -126 -60 -162 -101 -154 -175 -98 -472 107
-572 49 -23 69 -27 142 -27 136 1 247 55 308 152 42 64 55 126 50 226 -7 137
-74 243 -190 302 -64 33 -186 43 -255 20z"/>
<path d="M41970 7940 c-435 -453 -453 -476 -453 -580 0 -191 211 -300 372
-192 22 15 139 131 260 257 l221 230 0 348 c0 191 -1 347 -3 347 -1 0 -180
-185 -397 -410z"/>
<path d="M38137 3844 c-39 -12 -74 -40 -185 -147 -386 -372 -1483 -1228 -3555
-2776 -336 -251 -752 -560 -923 -686 l-311 -230 405 -3 404 -2 267 197 c1884
1398 3359 2536 3891 3004 245 215 307 291 317 392 18 172 -145 304 -310 251z"/>
<path d="M16748 3576 c-48 -18 -76 -36 -138 -91 -324 -288 -2215 -1301 -5447
-2918 l-1123 -562 542 -3 541 -2 726 366 c2752 1389 4254 2190 4856 2589 245
163 321 240 346 349 22 99 -32 210 -124 257 -51 27 -131 33 -179 15z"/>
</g>
</svg>
